<?xml version="1.0" encoding="UTF-8" standalone="no"?>
<svg
   xmlns:dc="http://purl.org/dc/elements/1.1/"
   xmlns:cc="http://creativecommons.org/ns#"
   xmlns:rdf="http://www.w3.org/1999/02/22-rdf-syntax-ns#"
   xmlns:svg="http://www.w3.org/2000/svg"
   xmlns="http://www.w3.org/2000/svg"
   xmlns:sodipodi="http://sodipodi.sourceforge.net/DTD/sodipodi-0.dtd"
   xmlns:inkscape="http://www.inkscape.org/namespaces/inkscape"
   version="1.1"
   id="layer"
   x="0px"
   y="0px"
   viewBox="0 0 600 287"
   xml:space="preserve"
   sodipodi:docname="logo-ucla2.svg"
   inkscape:version="1.0.2-2 (e86c870879, 2021-01-15)"
   width="600"
   height="287"><metadata
   id="metadata19"><rdf:RDF><cc:Work
       rdf:about=""><dc:format>image/svg+xml</dc:format><dc:type
         rdf:resource="http://purl.org/dc/dcmitype/StillImage" /><dc:title></dc:title></cc:Work></rdf:RDF></metadata><defs
   id="defs17" /><sodipodi:namedview
   pagecolor="#ffffff"
   bordercolor="#666666"
   borderopacity="1"
   objecttolerance="10"
   gridtolerance="10"
   guidetolerance="10"
   inkscape:pageopacity="0"
   inkscape:pageshadow="2"
   inkscape:window-width="2560"
   inkscape:window-height="1346"
   id="namedview15"
   showgrid="false"
   inkscape:zoom="1.5736196"
   inkscape:cx="305.9"
   inkscape:cy="223.75731"
   inkscape:window-x="-11"
   inkscape:window-y="-11"
   inkscape:window-maximized="1"
   inkscape:current-layer="layer" />
<style
   type="text/css"
   id="style2">
	.st0{fill:#0076B5;}
	.st1{fill:#FFFFFF;}
</style>
<rect
   x="0"
   y="0"
   class="st0"
   width="600"
   height="287"
   id="rect4" />
<path
   class="st1"
   d="m 95.9,171.1 c -0.6,-4.6 -0.3,-11.2 -0.3,-14.5 l 6.8,-78.2 h 25.1 l -6.9,78.9 c -1.5,17.1 5.1,29.3 21.8,29.3 17.1,0 26.1,-12.4 27.6,-27.5 l 7.1,-80.6 h 25.1 l -6.9,79.6 c -2.8,30.7 -22.7,53.6 -55,53.6 C 115.2,211.6 99,195.1 95.9,171.1"
   id="path6" />
<path
   class="st1"
   d="m 208.1,144.6 c 3.3,-37.5 28.1,-68.7 71,-68.7 11.3,0 22.1,2.6 33,9.7 l -2.9,31 c -9.9,-13.3 -21.7,-15.4 -32.5,-15.4 -26.7,0 -41.4,18.9 -43.5,42.9 -2,23.3 9.8,42.3 35.6,42.3 11.3,0 23.3,-3.3 35.8,-16.1 l -2.8,31.9 c -12.2,6.7 -23.6,9.8 -35,9.8 -42.4,-0.1 -61.8,-32.2 -58.7,-67.4"
   id="path8" />
<path
   class="st1"
   d="m 332.1,78.4 h 25.1 l -9.1,106.2 h 35.8 c 2.5,0 11.1,-0.1 13.4,-0.3 -0.1,1.3 -2.3,24.5 -2.3,24.5 h -74.3 z"
   id="path10" />
<path
   class="st1"
   d="m 462.6,127.1 c 0.8,-1.9 1.6,-4.2 1.9,-5.5 0,0 0.4,0 0.4,0 0.1,1.6 0.4,3.6 1,5.5 1.4,5.9 11.1,39 11.1,39 h -31.6 c -0.1,0 16.9,-38.1 17.2,-39 M 469,72.4 h -1.7 l -68.6,136.4 h 26.6 l 9.6,-20.7 h 48.3 l 6,20.7 h 26.7 z"
   id="path12" />
</svg>
